<svg xmlns="http://www.w3.org/2000/svg" width="918.666" height="405.333" viewBox="0 0 9569 4222" shape-rendering="geometricPrecision" text-rendering="geometricPrecision" image-rendering="optimizeQuality" fill-rule="evenodd" clip-rule="evenodd"><defs><style>.fil0{fill:#fefefe;fill-rule:nonzero}</style></defs><g id="Layer_x0020_1"><path class="fil0" d="M6388-8c2003 775 1460 2522 1120 3326h1921C9562 2813 10301-26 6388-8zM498 1578v585h1096c150 0 219-28 219-166v-252c0-138-69-166-219-166H498zM19 1217h1794c321 0 471 114 471 406v491c0 292-150 406-471 406h-276l966 791h-698l-844-791H498v791H19V1216zM2641 1217h2433l-198 365H3128v552h1433l-215 382H3128v795h-487zM6232 2475l-450-852-467 852h917zm-670-1258h471l1201 2095h-548l-252-459H5107l-244 459h-487l1185-2095zM9350 3500L18 3563c-8 0-15 7-16 15 0 0-2 37-2 38 0 4 1 8 4 11s7 5 11 5c0 0 8813 124 8857 124-14 38-166 446-166 446-1 2-1 3-1 5 0 5 3 11 7 14 3 1 5 2 8 2 4 0 9-2 12-5l629-691c4-5 5-11 3-17s-8-10-14-10z"/></g></svg>